<?xml version="1.0" standalone="no"?>
<!DOCTYPE svg PUBLIC "-//W3C//DTD SVG 20010904//EN"
 "http://www.w3.org/TR/2001/REC-SVG-20010904/DTD/svg10.dtd">
<svg version="1.0" xmlns="http://www.w3.org/2000/svg"
 width="1611.000000pt" height="1611.000000pt" viewBox="0 0 1611.000000 1611.000000"
 preserveAspectRatio="xMidYMid meet">
<metadata>
Created by potrace 1.14, written by Peter Selinger 2001-2017
</metadata>
<g transform="translate(0.000000,1611.000000) scale(0.100000,-0.100000)"
fill="#000000" stroke="none">
<path d="M2997 16104 c-1 -1 -49 -5 -107 -9 -57 -3 -107 -8 -110 -10 -3 -2
-34 -6 -70 -10 -36 -4 -74 -9 -85 -11 -92 -17 -139 -27 -194 -40 -36 -9 -72
-17 -80 -19 -57 -12 -271 -83 -360 -120 -468 -190 -854 -460 -1181 -826 -131
-147 -214 -256 -310 -409 -29 -47 -60 -96 -69 -110 -46 -73 -134 -253 -185
-377 -131 -320 -206 -645 -232 -998 -8 -118 -8 -10046 0 -10192 4 -62 9 -128
11 -145 2 -18 7 -53 10 -78 3 -25 7 -56 10 -70 2 -14 7 -43 10 -65 8 -56 54
-262 70 -310 7 -22 16 -53 19 -69 31 -132 196 -504 307 -689 230 -383 555
-729 919 -979 463 -318 1002 -507 1550 -545 131 -9 10116 -9 10260 0 146 9
375 42 475 69 22 5 48 12 58 14 180 34 520 167 752 293 156 84 369 227 479
321 374 317 630 639 835 1048 143 286 260 671 296 982 3 25 7 61 10 80 15 123
18 757 18 5220 0 4427 -3 5153 -18 5242 -2 12 -7 45 -10 72 -67 580 -326 1169
-718 1631 -480 566 -1177 962 -1887 1070 -25 4 -53 9 -62 10 -9 2 -48 7 -85
10 -37 4 -77 10 -88 13 -18 5 -10232 11 -10238 6z"/>
</g>
</svg>
